<svg width="1472" height="206" viewBox="0 0 1472 206" fill="none" xmlns="http://www.w3.org/2000/svg">
<path d="M1472 206H1422.93C1373.87 206 1275.73 206 1177.6 198.501C1079.47 191.282 981.333 175.863 883.2 149.931C785.067 124 686.933 86.1535 588.8 97.5774C490.667 108.581 392.533 168.855 294.4 168.644C196.267 168.855 98.1333 108.581 49.0666 78.9346L-8.39233e-05 49.0081V26.5806H49.0666C98.1333 26.5806 196.267 26.5806 294.4 26.5806C392.533 26.5806 490.667 26.5806 588.8 26.5806C686.933 26.5806 785.067 26.5806 883.2 26.5806C981.333 26.5806 1079.47 26.5806 1177.6 26.5806C1275.73 26.5806 1373.87 26.5806 1422.93 26.5806H1472V206Z" fill="#395466"/>
<path d="M1472 79.7418L1422.93 76.44C1373.87 72.889 1275.73 66.6592 1177.6 56.5045C1079.47 46.7237 981.333 33.018 883.2 43.1727C785.067 52.9535 686.933 86.5946 588.8 86.4078C490.667 86.5946 392.533 52.9535 294.4 53.1404C196.267 52.9535 98.1333 86.5947 49.0666 102.979L-8.39233e-05 119.613V-0.000110626H49.0666C98.1333 -0.000110626 196.267 -0.000110626 294.4 -0.000110626C392.533 -0.000110626 490.667 -0.000110626 588.8 -0.000110626C686.933 -0.000110626 785.067 -0.000110626 883.2 -0.000110626C981.333 -0.000110626 1079.47 -0.000110626 1177.6 -0.000110626C1275.73 -0.000110626 1373.87 -0.000110626 1422.93 -0.000110626H1472V79.7418Z" fill="#314654"/>
</svg>
