<svg width="1440" height="213" viewBox="0 0 1440 213" fill="none" xmlns="http://www.w3.org/2000/svg">
<path d="M0 182.408L48 177.373C96 171.957 192 162.457 288 157.042C384 152.006 480 152.006 576 157.042C672 162.457 768 171.957 864 157.042C960 141.556 1056 101.654 1152 70.968C1248 40.8517 1344 19.9508 1392 10.1654L1440 0V212.809H1392C1344 212.809 1248 212.809 1152 212.809C1056 212.809 960 212.809 864 212.809C768 212.809 672 212.809 576 212.809C480 212.809 384 212.809 288 212.809C192 212.809 96 212.809 48 212.809H0V182.408Z" fill="#98293B"/>
</svg>
