<svg width="1440" height="320" viewBox="0 0 1440 320" fill="none" xmlns="http://www.w3.org/2000/svg">
<g clip-path="url(#clip0)">
<path d="M0 192L48 197.3C96 203 192 213 288 229.3C384 245 480 267 576 250.7C672 235 768 181 864 181.3C960 181 1056 235 1152 234.7C1248 235 1344 181 1392 154.7L1440 128V320H1392C1344 320 1248 320 1152 320C1056 320 960 320 864 320C768 320 672 320 576 320C480 320 384 320 288 320C192 320 96 320 48 320H0V192Z" fill="#BE4357"/>
<path d="M0 49H48C96 49 192 49 288 59.7C384 70 480 92 576 129C672 166 768 220 864 203.7C960 188 1056 102 1152 102.3C1248 102 1344 188 1392 230.3L1440 273V305H1392C1344 305 1248 305 1152 305C1056 305 960 305 864 305C768 305 672 305 576 305C480 305 384 305 288 305C192 305 96 305 48 305H0V49Z" fill="#BE4357" fill-opacity="0.11"/>
</g>
<defs>
<clipPath id="clip0">
<rect width="1440" height="320" fill="white"/>
</clipPath>
</defs>
</svg>
