<svg width="456" height="324" viewBox="0 0 456 324" fill="none" xmlns="http://www.w3.org/2000/svg">
<g clip-path="url(#clip0)">
<path opacity="0.18" d="M113.948 35.2095C99.9125 51.5065 91.172 71.7688 79.0754 89.5704C70.1261 102.872 59.2079 114.782 50.1094 128.028C31.9721 154.407 21.024 186.565 23.0227 218.695C25.0214 250.825 40.9214 282.547 67.4264 300.138C83.6993 310.951 102.955 316.084 122.107 319.416C186.587 330.665 255.989 322.003 311.087 286.133C320.544 279.974 329.597 273.028 339.859 268.36C366.215 256.351 400.402 259.135 419.509 237.087C431.008 223.813 433.544 204.831 433.156 187.128C432.694 165.867 428.279 143.538 414.542 127.592C396.643 106.683 367.408 101.087 343.215 88.2205C319.634 75.7481 300.616 56.1326 280.361 38.6123C231.632 -3.5575 161.529 -20.0373 113.948 35.2095Z" fill="#EDEBE8"/>
<path d="M347.735 209.724C347.738 211.025 347.457 212.313 346.911 213.508C346.364 214.703 345.563 215.779 344.558 216.67C342.836 218.213 340.613 219.164 338.248 219.37C337.807 219.405 337.363 219.405 336.921 219.37L262.835 217.964C259.995 217.935 257.279 216.862 255.265 214.974C253.251 213.086 252.098 210.531 252.051 207.854C252.046 206.553 252.322 205.265 252.864 204.068C253.405 202.871 254.199 201.791 255.199 200.894C257.256 199.05 259.997 198.04 262.835 198.081H265.356C264.835 196.357 264.569 194.573 264.566 192.78C264.561 190.218 265.112 187.681 266.184 185.326C267.256 182.971 268.827 180.847 270.8 179.084C272.541 177.515 274.561 176.244 276.766 175.33C279.624 174.156 282.718 173.58 285.835 173.643L292.129 173.769C296.045 173.845 299.868 174.91 303.197 176.854C306.527 178.798 309.241 181.55 311.057 184.821C312.872 184.008 314.865 183.608 316.874 183.654H318.5C321.872 183.687 325.098 184.958 327.49 187.198C329.883 189.438 331.255 192.47 331.313 195.649V196.225C331.312 197.321 331.141 198.41 330.806 199.459L336.936 199.572C339.783 199.608 342.503 200.688 344.519 202.584C346.535 204.479 347.688 207.04 347.735 209.724Z" fill="#EDEBE8"/>
<path d="M338.248 219.37C337.807 219.405 337.363 219.405 336.921 219.37L262.835 217.964C259.995 217.935 257.279 216.862 255.265 214.974C253.251 213.086 252.098 210.531 252.051 207.854C252.046 206.553 252.322 205.265 252.864 204.068C253.405 202.871 254.199 201.791 255.199 200.894C252.215 218.147 271.382 215.672 271.382 215.672H319.514L338.248 219.37Z" fill="url(#paint0_linear)"/>
<path d="M270.785 200.162L265.401 198.236C264.88 196.512 264.614 194.728 264.61 192.935C264.606 190.372 265.157 187.836 266.229 185.481C267.301 183.126 268.872 181.002 270.845 179.239C272.586 177.669 274.606 176.399 276.811 175.485C261.911 187.521 270.785 200.162 270.785 200.162Z" fill="url(#paint1_linear)"/>
<path opacity="0.23" d="M180.904 307.9C233.246 307.9 275.678 271.77 275.678 227.202C275.678 182.634 233.246 146.504 180.904 146.504C128.562 146.504 86.1306 182.634 86.1306 227.202C86.1306 271.77 128.562 307.9 180.904 307.9Z" fill="#899598"/>
<path d="M298.573 213.83C298.598 232.565 292.13 250.794 280.153 265.744L279.959 265.997C266.834 282.304 247.988 293.682 226.786 298.098C205.584 302.515 183.408 299.682 164.217 290.107C145.026 280.532 130.07 264.837 122.021 245.825C113.972 226.814 113.354 205.725 120.277 186.323C127.2 166.922 141.213 150.473 159.814 139.912C178.414 129.352 200.391 125.37 221.819 128.675C243.248 131.981 262.732 142.36 276.791 157.959C290.851 173.558 298.572 193.36 298.573 213.83Z" fill="#899598"/>
<path d="M177.578 171.379C172.551 173.333 167.003 173.797 161.842 175.4C156.681 177.003 151.505 180.237 150.178 185.243C149.492 187.76 149.85 190.558 148.537 192.836C146.792 195.902 142.705 197.055 140.229 199.586C135.516 204.479 138.618 212.874 144.376 216.656C150.133 220.439 157.487 221.015 164.378 222.126C166.263 222.268 168.061 222.939 169.538 224.052C173.551 227.666 169.106 234.205 170.806 239.182C171.761 241.995 174.58 243.921 175.863 246.621C178.324 251.767 174.595 257.448 172.134 262.594C167.695 271.983 167.294 282.63 171.015 292.292C170.844 292.525 170.654 292.746 170.448 292.953C160.632 288.892 151.643 283.248 143.884 276.276C136.321 266.278 130.34 255.381 130.967 243.401C131.31 236.904 133.607 230.633 134.039 224.165C134.755 213.661 130.728 202.257 136.187 193.089C139.17 188.013 144.987 182.445 141.736 177.524C135.993 178.311 129.803 178.438 124.538 176.553C130.999 163.865 140.652 152.858 152.658 144.491C164.663 136.124 178.656 130.651 193.418 128.548C199.086 143.819 194.582 164.629 177.578 171.379Z" fill="url(#paint2_linear)"/>
<path d="M298.573 213.83C298.579 219.289 298.035 224.737 296.947 230.099C294.515 231.963 292.236 233.998 290.131 236.187C282.897 244.174 281.33 255.254 280.152 265.716C280.152 265.941 280.152 266.166 280.078 266.377C280.078 266.236 280.078 266.11 279.958 265.969C279.383 263.282 278.141 260.762 276.334 258.615C274.275 256.52 270.621 255.479 268.115 257.125C266.922 254.312 265.724 251.523 264.521 248.758C257.063 248.758 249.366 248.758 242.356 246.269C235.346 243.78 229.544 239.014 223.935 234.359C224.672 226.295 224.512 218.179 223.458 210.146C245.243 207.917 265.395 198.201 280.063 182.853C266.944 182.236 253.938 185.4 242.774 191.922C240.387 193.329 237.971 194.903 235.182 195.128C233.414 195.17 231.651 194.942 229.961 194.453L211.928 190.137C209.676 179.197 217.715 168.215 228.052 162.801C235.808 158.752 245.22 159.539 252.663 155.996C257.764 153.577 259.255 149.345 263.715 146.237H263.805C274.638 154.297 283.395 164.566 289.416 176.272C295.438 187.979 298.569 200.819 298.573 213.83Z" fill="url(#paint3_linear)"/>
<path d="M235.361 196.352C234.824 198.011 234.317 199.951 235.361 201.343C235.874 201.939 236.549 202.391 237.315 202.651C238.206 203.052 239.197 203.213 240.179 203.116C241.16 203.02 242.095 202.669 242.878 202.103C243.697 201.258 244.277 200.233 244.564 199.122C245.958 195.087 246.957 190.94 247.547 186.734C247.659 186.347 247.659 185.939 247.547 185.553C247.314 185.147 246.94 184.829 246.488 184.653C244.116 183.458 240.402 182.501 239.03 185.145C237.345 188.548 236.554 192.752 235.361 196.352Z" fill="#FBC4D6"/>
<path d="M242.535 198.278C243.036 198.213 243.546 198.257 244.027 198.405C244.354 198.576 244.639 198.811 244.862 199.094L250.008 204.535C251.007 205.59 252.051 207.038 251.35 208.29C251.103 208.638 250.777 208.93 250.395 209.144C250.013 209.358 249.585 209.489 249.143 209.527C246.65 209.742 244.145 209.279 241.924 208.191C240.343 207.545 238.776 206.785 237.24 206.082C236.099 205.594 235.1 204.85 234.332 203.917C233.153 202.229 232.84 198.18 234.898 196.886C235.957 196.253 236.882 196.703 237.882 197.139C239.31 197.873 240.908 198.264 242.535 198.278Z" fill="#899598"/>
<path d="M263.879 214.884C263.92 215.197 263.884 215.515 263.775 215.812C263.597 216.102 263.339 216.34 263.029 216.501C262.051 217.137 260.904 217.502 259.718 217.556C259.125 217.577 258.536 217.469 257.995 217.239C257.454 217.01 256.977 216.666 256.601 216.234C256.052 215.416 255.719 214.485 255.631 213.52C255.194 211.446 254.979 209.336 254.99 207.221C254.964 207.097 254.967 206.969 254.998 206.846C255.03 206.723 255.09 206.607 255.174 206.508C255.258 206.409 255.363 206.329 255.483 206.272C255.604 206.215 255.735 206.184 255.87 206.18C257.719 205.815 261.403 204.901 262.343 207.038C263.3 209.558 263.819 212.208 263.879 214.884Z" fill="#FBC4D6"/>
<path d="M271.71 214.673C273.3 214.754 274.87 215.038 276.379 215.517C277.129 215.762 277.817 216.149 278.402 216.654C278.987 217.16 279.456 217.773 279.78 218.456C280.081 219.125 280.118 219.873 279.884 220.565C279.369 221.592 278.464 222.4 277.348 222.829C272.047 225.485 266.067 226.697 260.076 226.33C258.539 226.389 257.037 225.885 255.885 224.924C255.053 223.763 254.664 222.37 254.781 220.973L254.572 214.364C255.922 214.421 257.239 214.772 258.42 215.391C260.628 216.094 261.493 214.406 263.313 213.985C265.684 213.464 269.294 214.449 271.71 214.673Z" fill="#899598"/>
<path d="M242.535 198.278C243.036 198.213 243.546 198.257 244.027 198.405C244.354 198.576 244.639 198.811 244.862 199.094L250.008 204.535C251.007 205.59 252.051 207.038 251.35 208.29C251.103 208.638 250.777 208.93 250.395 209.144C250.013 209.358 249.585 209.489 249.143 209.527C246.65 209.742 244.145 209.279 241.924 208.191C240.343 207.545 238.776 206.785 237.24 206.082C236.099 205.594 235.1 204.85 234.332 203.917C233.153 202.229 232.84 198.18 234.898 196.886C235.957 196.253 236.882 196.703 237.882 197.139C239.31 197.873 240.908 198.264 242.535 198.278Z" fill="url(#paint4_linear)"/>
<path d="M271.71 214.673C273.3 214.754 274.87 215.038 276.379 215.517C277.129 215.762 277.817 216.149 278.402 216.654C278.987 217.16 279.456 217.773 279.78 218.456C280.081 219.125 280.118 219.873 279.884 220.565C279.369 221.592 278.464 222.4 277.348 222.829C272.047 225.485 266.067 226.697 260.076 226.33C258.539 226.389 257.037 225.885 255.885 224.924C255.053 223.763 254.664 222.37 254.781 220.973L254.572 214.364C255.922 214.421 257.239 214.772 258.42 215.391C260.628 216.094 261.493 214.406 263.313 213.985C265.684 213.464 269.294 214.449 271.71 214.673Z" fill="url(#paint5_linear)"/>
<path d="M186.736 143.074C183.528 142.811 180.299 142.858 177.101 143.214C176.682 143.234 176.277 143.355 175.922 143.566C175.719 143.747 175.555 143.964 175.443 144.206C175.33 144.447 175.27 144.708 175.266 144.972C174.819 149.05 178.249 152.593 181.948 154.744C191.957 160.594 204.575 160.369 215.628 164.194C216.682 164.457 217.618 165.034 218.297 165.839C218.758 166.711 218.984 167.677 218.954 168.651C219.446 174.149 222.683 179.099 223.757 184.512C224.83 189.926 223.682 195.592 224.562 201.048C228.186 197.406 234.362 196.83 237.986 193.23C241.387 189.912 242.058 184.962 242.565 180.378L243.937 167.807C244.192 166.901 244.087 165.938 243.642 165.099C243.197 164.261 242.443 163.604 241.521 163.251C225.203 153.31 206.082 144.648 186.736 143.074Z" fill="url(#paint6_linear)"/>
<path d="M252.723 141.808C254.23 142.093 255.627 142.759 256.765 143.734C257.931 145.265 258.462 147.146 258.256 149.021C258.221 162.364 255.545 175.583 250.366 187.999C250.317 188.436 250.156 188.854 249.896 189.218C249.636 189.582 249.285 189.881 248.875 190.088C248.464 190.294 248.006 190.403 247.54 190.404C247.075 190.405 246.616 190.299 246.204 190.095C243.103 189.305 240.046 188.367 237.046 187.282L241.103 161.972C241.297 161.27 241.255 160.528 240.984 159.849C240.684 159.367 240.264 158.962 239.761 158.668C235.134 155.494 230.246 152.673 225.144 150.231C221.072 148.29 216.403 146.012 215.299 141.906C215.07 141.205 215.024 140.462 215.164 139.74C215.304 139.018 215.627 138.338 216.105 137.758C216.75 137.161 217.509 136.684 218.342 136.352C221.042 135.101 224.443 133.54 227.545 133.793C230.036 134.032 230.991 135.382 233.064 136.38C238.821 139.08 246.473 140.093 252.723 141.808Z" fill="#282328"/>
<path d="M225.009 101.551C227.008 106.739 227.992 112.237 229.752 117.482C230.138 118.872 230.829 120.17 231.781 121.293C233.046 122.437 234.579 123.284 236.256 123.767C238.592 124.62 240.969 125.366 243.385 126.003C244.996 126.411 246.92 127.114 247.099 128.661C247.137 129.177 247.024 129.692 246.771 130.151C246.148 131.199 245.25 132.078 244.164 132.706C243.078 133.334 241.839 133.689 240.566 133.737C238.025 133.801 235.495 133.41 233.108 132.584C230.936 132.169 228.942 131.156 227.381 129.673C226.493 128.44 225.87 127.054 225.546 125.595C223.098 117.404 219.702 109.492 215.419 102.001C214.137 100.022 213.134 97.8952 212.435 95.673C211.451 91.7921 211.436 82.596 215.687 85.9707C219.118 88.6986 223.503 97.6978 225.009 101.551Z" fill="#FBC4D6"/>
<path d="M208.737 141.316C211.251 140.397 213.698 139.321 216.06 138.096C225.01 133.427 217.686 131.135 214.703 125.525C212.57 121.546 213.435 116.779 214.539 112.462C216.493 104.869 219.103 96.9946 217.224 89.4156C216.989 88.1855 216.48 87.0163 215.732 85.9846C215.185 85.3446 214.553 84.7729 213.853 84.2832C211.963 82.7447 209.789 81.5482 207.439 80.7538C202.964 79.3477 197.893 80.3742 193.642 82.3849C176.937 90.2874 173.372 110.24 174.043 126.2C174.222 130.629 174.953 135.312 177.981 138.7C181.009 142.089 185.289 143.383 189.675 143.889C196.156 144.514 202.701 143.63 208.737 141.316Z" fill="white"/>
<path d="M183.828 132.289C183.962 133.786 184.474 135.232 185.319 136.507C186.811 138.49 189.555 139.221 192.076 139.797L203.427 142.441C204.81 142.836 206.247 143.04 207.692 143.045C210.795 142.905 213.465 141.035 215.926 139.235C216.555 138.829 217.101 138.319 217.537 137.73C211.272 137.168 205.023 136.577 198.788 135.72C195.119 135.213 191.241 134.51 188.541 132.134C187.146 130.835 186.085 129.253 185.438 127.508C184.991 126.425 184.782 123.669 183.484 123.43C183.158 126.383 183.273 129.365 183.828 132.289Z" fill="url(#paint7_linear)"/>
<path d="M206.231 93.1139C206.229 93.5573 206.042 93.9821 205.708 94.2951C205.398 94.4672 205.036 94.5366 204.679 94.492C203.51 94.4403 202.367 94.1531 201.326 93.6497C200.285 93.1463 199.37 92.4383 198.643 91.5736C197.917 90.7088 197.395 89.7073 197.114 88.6365C196.833 87.5658 196.798 86.4506 197.013 85.3662C197.281 83.96 197.923 82.7508 198.325 81.429C199.116 78.7855 198.982 75.8045 200.757 73.625C202.293 76.9397 204.047 80.1612 206.007 83.271C206.508 83.8894 206.856 84.6054 207.026 85.3668C207.197 86.1282 207.185 86.9158 206.991 87.6722L206.231 93.1139Z" fill="#FBC4D6"/>
<path d="M207.111 86.3081L206.439 90.5265C206.439 90.5265 198.758 86.9408 199.757 80.2899C200.757 73.6389 207.111 86.3081 207.111 86.3081Z" fill="url(#paint8_linear)"/>
<path d="M216.09 82.2022C215.696 83.5535 214.861 84.7538 213.703 85.6331C213.151 85.9859 212.534 86.2387 211.884 86.3784C209.6 86.7961 207.234 86.5219 205.126 85.595C203.017 84.668 201.274 83.1359 200.145 81.2179C199.081 79.275 198.475 77.1387 198.367 74.9548C198.259 72.7708 198.651 70.5905 199.519 68.5627C200.228 66.3387 201.835 64.4658 203.993 63.346C205.173 62.9073 206.45 62.7509 207.71 62.8908C208.969 63.0306 210.173 63.4624 211.212 64.1475C214.038 66.0072 216.221 68.6084 217.492 71.6281C218.581 74.7075 217.208 79.2634 216.09 82.2022Z" fill="#FBC4D6"/>
<path d="M249.814 159.483C251.726 161.778 253.236 164.346 254.289 167.09C260.155 180.426 263.967 194.484 265.61 208.838C260.821 209.401 255.976 209.401 251.186 208.838C250.811 198.705 249.154 188.65 246.249 178.888C245.736 176.786 244.854 174.781 243.639 172.954C241.506 170.043 238.001 168.356 234.69 166.781C226.942 163.231 218.844 160.406 210.512 158.344C206.992 157.43 203.442 156.586 199.981 155.532C197.073 154.604 188.914 151.201 186.557 149.359C185.322 148.476 184.289 147.367 183.52 146.099C182.751 144.83 182.262 143.428 182.083 141.977C182.083 142.708 204.814 144.17 206.44 144.002C211.914 143.453 218.372 140.5 223.772 142.595C227.993 144.226 231.856 147.629 235.704 149.978C240.373 152.734 246.07 155.405 249.814 159.483Z" fill="#473F47"/>
<path d="M224.905 158.4L197.162 145.618L229.693 132.612L257.451 144.044L224.905 158.4Z" fill="black"/>
<path d="M182.649 98.3868C182.649 98.8789 182.515 99.357 182.455 99.7929C181.635 106.992 182.381 114.051 182.664 121.208C182.843 125.638 183.455 134.074 188.452 136.338C197.789 140.557 215.807 138.954 215.807 138.954C217.896 138.638 220.031 138.719 222.086 139.193C223.205 139.516 224.234 140.064 225.323 140.458C229.261 141.864 233.661 141.161 237.807 140.458C238.522 140.378 239.212 140.163 239.836 139.825C240.559 139.219 241.001 138.369 241.065 137.459C241.129 136.549 240.811 135.651 240.179 134.96C238.833 133.627 237.082 132.718 235.167 132.359C229.931 130.747 224.322 130.543 218.969 131.768C218.285 131.985 217.587 132.164 216.881 132.303C216.052 132.429 215.214 132.486 214.375 132.471H208.021C200.712 132.471 193.821 132.556 192.717 124.499C192.31 121.515 192.23 118.499 192.479 115.499C192.911 110.086 194.418 104.714 194.105 99.3008C194.086 97.5838 193.63 95.8962 192.777 94.3793C192.345 93.6261 191.714 92.9902 190.946 92.5322C190.179 92.0743 189.299 91.8098 188.392 91.7639C187.452 91.83 186.547 92.1236 185.763 92.6163C184.979 93.109 184.343 93.784 183.917 94.5762C183.257 95.7649 182.828 97.0555 182.649 98.3868Z" fill="#FBC4D6"/>
<path d="M268.876 118.255L230.096 136.858L224.905 158.4L257.451 144.044L268.876 118.255Z" fill="#75878B"/>
<path d="M217.999 74.4405C217.957 73.1018 217.43 71.8169 216.508 70.7986C216.039 70.2861 215.485 69.8491 214.867 69.5049C214.002 69.0269 213.793 68.9847 213.226 69.758C212.495 70.7564 212.257 71.9235 211.586 72.964C210.851 74.1181 209.827 75.0839 208.602 75.7763C207.227 76.5811 205.626 76.9778 204.008 76.9152C203.366 76.8237 202.712 76.8237 202.069 76.9152C201.854 76.9537 201.649 77.0367 201.471 77.1583C201.293 77.2798 201.146 77.4369 201.04 77.6183C200.886 78.1442 200.831 78.6914 200.876 79.2354C200.742 80.6415 199.265 81.6398 198.445 82.8632C197.625 84.0865 197.386 85.9004 196.401 87.2081C196.219 87.4705 195.967 87.6836 195.671 87.8268C194.97 88.108 194.179 87.7424 193.448 87.6159C191.285 87.2643 189.54 89.1626 187.691 90.3156C183.977 92.6217 179.114 92.0311 174.729 91.3421C173.387 91.189 172.078 90.8379 170.851 90.3016C169.526 89.5644 168.35 88.6123 167.376 87.4893C165.75 85.802 164.139 84.0865 162.543 82.371C161.95 81.8218 161.479 81.167 161.156 80.4446C160.985 79.9409 160.939 79.4069 161.022 78.8838C161.167 77.9073 161.474 76.9584 161.932 76.0716C163.095 73.6108 164.452 70.9392 167.077 69.8284C169.703 68.7175 172.805 69.5471 175.699 69.2659C176.051 69.2652 176.395 69.1621 176.683 68.9706C176.913 68.7253 177.077 68.431 177.16 68.1129C178.369 64.3304 179.875 60.2245 183.485 58.27C186.266 57.0104 189.401 56.6212 192.434 57.1591C195.436 57.694 198.5 57.8594 201.547 57.6513C203.039 57.4263 204.53 56.9623 206.022 56.6811C209.51 55.9504 213.161 56.4507 216.284 58.0872C217.825 58.9518 219.115 60.1638 220.036 61.6143C220.958 63.0648 221.483 64.7083 221.564 66.3974C221.504 67.0571 221.504 67.7204 221.564 68.38C221.668 68.9987 221.952 69.6034 222.056 70.2221C222.117 70.7568 222.058 71.2977 221.881 71.8092C221.705 72.3207 221.415 72.7911 221.032 73.1896C220.649 73.588 220.18 73.9055 219.658 74.1211C219.135 74.3367 218.57 74.4455 217.999 74.4405Z" fill="#9D9588"/>
<path d="M181.292 102.38C180.832 106.36 180.782 110.372 181.143 114.36C181.125 114.707 181.219 115.05 181.411 115.345C181.728 115.672 182.166 115.873 182.634 115.907C185.05 116.331 187.501 116.552 189.958 116.568C190.303 116.672 190.668 116.703 191.026 116.659C191.385 116.614 191.729 116.496 192.034 116.312C192.339 116.128 192.597 115.883 192.79 115.594C192.983 115.306 193.106 114.98 193.15 114.642C194.492 109.355 195.82 104.068 196.834 98.7102C197.237 96.5588 197.52 94.1403 196.148 92.3967C194.164 89.8656 188.81 89.5844 186.229 91.4264C183.112 93.6903 181.784 98.9773 181.292 102.38Z" fill="white"/>
<path d="M223.503 95.6307L227.724 105.164C227.933 105.535 228.016 105.957 227.963 106.373C227.855 106.715 227.649 107.022 227.366 107.259C225.304 109.315 222.856 110.993 220.147 112.209C217.649 110.105 215.62 107.552 214.181 104.7C212.778 101.311 213.092 97.543 213.509 93.9293C213.763 91.6373 213.673 84.2692 217.805 87.1236C220.684 89.0781 222.205 92.6919 223.503 95.6307Z" fill="white"/>
<path d="M147.15 185.061C147.152 186.36 146.872 187.647 146.328 188.841C145.785 190.035 144.988 191.112 143.988 192.007C142.264 193.546 140.043 194.497 137.679 194.707C137.237 194.728 136.794 194.728 136.351 194.707L62.2657 193.301C59.4215 193.272 56.7015 192.197 54.6846 190.307C52.6678 188.416 51.5133 185.858 51.4668 183.176C51.4654 181.877 51.7452 180.591 52.2888 179.396C52.8325 178.202 53.6287 177.125 54.6289 176.23C55.643 175.311 56.8396 174.589 58.1501 174.107C59.4605 173.624 60.8591 173.39 62.2657 173.418H64.7864C64.258 171.69 63.9918 169.901 63.9959 168.103C63.9908 165.54 64.5413 163.003 65.6134 160.648C66.6855 158.293 68.2567 156.169 70.2306 154.407C71.9698 152.838 73.9896 151.572 76.1968 150.667C79.0543 149.491 82.1486 148.916 85.2655 148.979L91.5599 149.106C95.4513 149.174 99.2533 150.218 102.575 152.131C105.896 154.044 108.617 156.756 110.458 159.989C112.278 159.189 114.267 158.79 116.275 158.822H117.901C121.272 158.862 124.493 160.138 126.882 162.38C129.272 164.622 130.64 167.653 130.698 170.831V171.407C130.704 172.498 130.538 173.583 130.206 174.627L136.336 174.754C139.217 174.78 141.969 175.877 143.995 177.808C146.02 179.739 147.154 182.345 147.15 185.061Z" fill="#EDEBE8"/>
<path d="M137.679 194.706C137.237 194.728 136.794 194.728 136.351 194.706L62.2657 193.3C59.4215 193.271 56.7015 192.197 54.6846 190.306C52.6678 188.416 51.5133 185.857 51.4668 183.176C51.4654 181.877 51.7452 180.59 52.2888 179.396C52.8325 178.202 53.6287 177.124 54.6289 176.23C51.7204 193.469 70.8123 191.008 70.8123 191.008H118.945L137.679 194.706Z" fill="url(#paint9_linear)"/>
<path d="M70.1558 175.499L64.7862 173.572C64.2578 171.845 63.9916 170.055 63.9957 168.257C63.9906 165.694 64.541 163.158 65.6131 160.803C66.6853 158.448 68.2565 156.324 70.2304 154.562C71.9695 152.993 73.9894 151.727 76.1966 150.821C61.3258 162.858 70.1558 175.499 70.1558 175.499Z" fill="url(#paint10_linear)"/>
<path d="M342.574 103.336C342.575 104.637 342.294 105.925 341.748 107.119C341.201 108.314 340.401 109.39 339.397 110.283C337.668 111.822 335.441 112.773 333.073 112.982C332.631 113.018 332.187 113.018 331.745 112.982L257.675 111.576C254.855 111.541 252.159 110.476 250.154 108.607C248.149 106.738 246.99 104.208 246.921 101.551C246.905 100.238 247.176 98.936 247.718 97.7264C248.259 96.5168 249.059 95.4253 250.068 94.5199C252.131 92.6768 254.877 91.6676 257.719 91.7076H260.225C259.704 89.9834 259.438 88.1995 259.435 86.4065C259.431 83.8439 259.981 81.3073 261.053 78.9524C262.126 76.5974 263.696 74.4735 265.669 72.7109C267.409 71.1389 269.429 69.8681 271.636 68.9565C274.493 67.7798 277.587 67.204 280.704 67.2691L286.999 67.3957C290.89 67.4634 294.692 68.5091 298.011 70.4248C301.331 72.3405 304.048 75.0568 305.882 78.2932C307.697 77.4809 309.69 77.0812 311.699 77.1261H313.325C316.697 77.1586 319.922 78.4301 322.315 80.6701C324.708 82.9101 326.079 85.9418 326.137 89.1204V89.6969C326.136 90.7924 325.965 91.882 325.63 92.931L331.76 93.0435C334.636 93.0767 337.381 94.1749 339.405 96.1008C341.428 98.0267 342.567 100.626 342.574 103.336Z" fill="#EDEBE8"/>
<path d="M333.088 112.982C332.646 113.018 332.202 113.018 331.76 112.982L257.69 111.576C254.867 111.544 252.168 110.482 250.159 108.612C248.151 106.742 246.99 104.211 246.921 101.551C246.905 100.238 247.176 98.9361 247.718 97.7265C248.259 96.5169 249.059 95.4254 250.068 94.52C247.085 111.773 266.251 109.298 266.251 109.298H314.384L333.088 112.982Z" fill="url(#paint11_linear)"/>
<path d="M265.58 93.7747L260.195 91.8483C259.674 90.124 259.408 88.3401 259.405 86.5472C259.401 83.9845 259.951 81.448 261.024 79.093C262.096 76.7381 263.666 74.6142 265.64 72.8515C267.379 71.2796 269.399 70.0087 271.606 69.0972C256.75 81.1336 265.58 93.7747 265.58 93.7747Z" fill="url(#paint12_linear)"/>
<path d="M202.174 76.9434C201.958 76.9819 201.754 77.0649 201.576 77.1864C201.398 77.308 201.251 77.4651 201.145 77.6465C200.991 78.1724 200.935 78.7196 200.981 79.2635C200.846 80.6697 199.37 81.668 198.549 82.8913C197.729 84.1147 197.49 85.9286 196.506 87.2363C196.323 87.4986 196.071 87.7118 195.775 87.855C195.074 88.1362 194.283 87.7706 193.553 87.644C191.39 87.2925 189.645 89.1908 187.795 90.3438C184.081 92.6499 179.219 92.0593 174.834 91.3703C173.454 91.2185 172.109 90.8576 170.851 90.3016C169.526 89.5644 168.35 88.6124 167.376 87.4894C165.75 85.802 164.139 84.0865 162.543 82.3711C161.95 81.8218 161.479 81.167 161.156 80.4447C160.985 79.9409 160.939 79.407 161.022 78.8839C161.717 78.488 162.44 78.1357 163.184 77.8293C165.471 76.6724 168.144 76.3953 170.642 77.0559C172.641 77.7871 174.058 79.4604 175.773 80.6556C178.165 82.2345 181.075 82.9601 183.982 82.7025C186.89 82.4449 189.605 81.2209 191.643 79.2495C192.395 78.3159 193.278 77.4833 194.269 76.7747C196.044 75.8607 199.653 76.0013 202.174 76.9434Z" fill="url(#paint13_linear)"/>
</g>
<defs>
<linearGradient id="paint0_linear" x1="298.185" y1="250.727" x2="292.176" y2="168.61" gradientUnits="userSpaceOnUse">
<stop offset="0.01"/>
<stop offset="0.13" stop-opacity="0.69"/>
<stop offset="0.25" stop-opacity="0.32"/>
<stop offset="1" stop-opacity="0"/>
</linearGradient>
<linearGradient id="paint1_linear" x1="2233.6" y1="3893.65" x2="2954.34" y2="3727.85" gradientUnits="userSpaceOnUse">
<stop offset="0.01"/>
<stop offset="0.13" stop-opacity="0.69"/>
<stop offset="0.25" stop-opacity="0.32"/>
<stop offset="1" stop-opacity="0"/>
</linearGradient>
<linearGradient id="paint2_linear" x1="8806.04" y1="42895.1" x2="931.288" y2="-17462.6" gradientUnits="userSpaceOnUse">
<stop offset="0.01"/>
<stop offset="0.13" stop-opacity="0.69"/>
<stop offset="0.25" stop-opacity="0.32"/>
<stop offset="1" stop-opacity="0"/>
</linearGradient>
<linearGradient id="paint3_linear" x1="16202.5" y1="30978.9" x2="12723" y2="-13608.4" gradientUnits="userSpaceOnUse">
<stop offset="0.01"/>
<stop offset="0.13" stop-opacity="0.69"/>
<stop offset="0.25" stop-opacity="0.32"/>
<stop offset="1" stop-opacity="0"/>
</linearGradient>
<linearGradient id="paint4_linear" x1="-15933.1" y1="2089.73" x2="-16227.5" y2="2293.93" gradientUnits="userSpaceOnUse">
<stop offset="0.01"/>
<stop offset="0.13" stop-opacity="0.69"/>
<stop offset="0.25" stop-opacity="0.32"/>
<stop offset="1" stop-opacity="0"/>
</linearGradient>
<linearGradient id="paint5_linear" x1="-22513.4" y1="2356.4" x2="-22592.5" y2="1995.75" gradientUnits="userSpaceOnUse">
<stop offset="0.01"/>
<stop offset="0.13" stop-opacity="0.69"/>
<stop offset="0.25" stop-opacity="0.32"/>
<stop offset="1" stop-opacity="0"/>
</linearGradient>
<linearGradient id="paint6_linear" x1="-64438.5" y1="5170.42" x2="-68295" y2="11499.6" gradientUnits="userSpaceOnUse">
<stop offset="0.01"/>
<stop offset="0.13" stop-opacity="0.69"/>
<stop offset="0.25" stop-opacity="0.32"/>
<stop offset="1" stop-opacity="0"/>
</linearGradient>
<linearGradient id="paint7_linear" x1="5480.94" y1="1622.45" x2="4858.7" y2="3204.26" gradientUnits="userSpaceOnUse">
<stop offset="0.01"/>
<stop offset="0.13" stop-opacity="0.69"/>
<stop offset="0.25" stop-opacity="0.32"/>
<stop offset="1" stop-opacity="0"/>
</linearGradient>
<linearGradient id="paint8_linear" x1="-5853.38" y1="765.434" x2="-5994.96" y2="954.703" gradientUnits="userSpaceOnUse">
<stop offset="0.01"/>
<stop offset="0.13" stop-opacity="0.69"/>
<stop offset="0.25" stop-opacity="0.32"/>
<stop offset="1" stop-opacity="0"/>
</linearGradient>
<linearGradient id="paint9_linear" x1="6250.12" y1="3219.17" x2="6232" y2="2133.54" gradientUnits="userSpaceOnUse">
<stop offset="0.01"/>
<stop offset="0.13" stop-opacity="0.69"/>
<stop offset="0.25" stop-opacity="0.32"/>
<stop offset="1" stop-opacity="0"/>
</linearGradient>
<linearGradient id="paint10_linear" x1="392.202" y1="3435.89" x2="1112.98" y2="3270.19" gradientUnits="userSpaceOnUse">
<stop offset="0.01"/>
<stop offset="0.13" stop-opacity="0.69"/>
<stop offset="0.25" stop-opacity="0.32"/>
<stop offset="1" stop-opacity="0"/>
</linearGradient>
<linearGradient id="paint11_linear" x1="17732.1" y1="2062.33" x2="17714" y2="977.07" gradientUnits="userSpaceOnUse">
<stop offset="0.01"/>
<stop offset="0.13" stop-opacity="0.69"/>
<stop offset="0.25" stop-opacity="0.32"/>
<stop offset="1" stop-opacity="0"/>
</linearGradient>
<linearGradient id="paint12_linear" x1="2186.19" y1="1920.16" x2="2906.93" y2="1754.35" gradientUnits="userSpaceOnUse">
<stop offset="0.01"/>
<stop offset="0.13" stop-opacity="0.69"/>
<stop offset="0.25" stop-opacity="0.32"/>
<stop offset="1" stop-opacity="0"/>
</linearGradient>
<linearGradient id="paint13_linear" x1="6499.59" y1="1348.58" x2="5719.86" y2="-198.574" gradientUnits="userSpaceOnUse">
<stop offset="0.01"/>
<stop offset="0.13" stop-opacity="0.69"/>
<stop offset="0.25" stop-opacity="0.32"/>
<stop offset="1" stop-opacity="0"/>
</linearGradient>
<clipPath id="clip0">
<rect width="456" height="324" fill="white"/>
</clipPath>
</defs>
</svg>
