<svg width="40" height="40" viewBox="0 0 40 40" fill="none" xmlns="http://www.w3.org/2000/svg">
<g clip-path="url(#clip0)">
<path fill-rule="evenodd" clip-rule="evenodd" d="M35.113 0C37.8102 0 40 2.18984 40 4.88703V35.113C40 37.8102 37.8102 40 35.113 40H4.88703C2.18984 40 0 37.8102 0 35.113V4.88703C0 2.18984 2.18977 0 4.88703 0H35.113V0ZM15.2749 33.1675C25.8952 33.1675 31.7021 24.3673 31.7021 16.7403C31.7021 16.4889 31.7021 16.2374 31.6902 15.998C32.8156 15.1838 33.7974 14.1661 34.5757 13.0047C33.546 13.4597 32.4325 13.771 31.2591 13.9147C32.4565 13.1963 33.3664 12.0708 33.7974 10.7178C32.684 11.3763 31.4507 11.8553 30.1337 12.1187C29.08 10.9932 27.5834 10.2988 25.9191 10.2988C22.7342 10.2988 20.148 12.885 20.148 16.0698C20.148 16.5248 20.1959 16.9678 20.3037 17.3869C15.5024 17.1474 11.252 14.8486 8.40234 11.3524C7.91141 12.2025 7.62406 13.1963 7.62406 14.2499C7.62406 16.2495 8.6418 18.0215 10.1983 19.0512C9.25242 19.0272 8.36641 18.7638 7.58812 18.3327V18.4046C7.58812 21.2063 9.5757 23.5291 12.2218 24.0679C11.7429 24.1996 11.228 24.2715 10.7012 24.2715C10.33 24.2715 9.97086 24.2355 9.61164 24.1637C10.342 26.4626 12.4732 28.1268 14.9995 28.1747C13.024 29.7193 10.5336 30.6412 7.82766 30.6412C7.3607 30.6412 6.9057 30.6173 6.4507 30.5573C8.97703 32.2097 12.0182 33.1675 15.2749 33.1675V33.1675Z" fill="#EDEBE8"/>
</g>
<defs>
<clipPath id="clip0">
<rect width="40" height="40" rx="20" fill="white"/>
</clipPath>
</defs>
</svg>
